# xmcd
#
# Track frame offsets:
#	150
#	14673
#	29470
#	54231
#	71877
#	91941
#	110780
#	133338
#	155151
#	175392
#	193236
#	214714
#
# Disc length: 3120 seconds
#
# Revision: 1
# Processed by: cddbd v1.5.1PL2 Copyright (c) Steve Scherf et al.
# Submitted via: EasyCDDAExtractor 9.0.2.1
#
DISCID=ba0c2e0c
DTITLE=Various Artist - PARTNERS
DYEAR=1900
DGENRE=
TTITLE0=李玟 - 刀马旦
TTITLE1=周杰伦 - 上海一九四三
TTITLE2=许茹芸 - 禁止悲伤
TTITLE3=周杰伦 - 爱在西元前
TTITLE4=温岚 - 眼泪知道
TTITLE5=古巨基 - 夜空的精灵
TTITLE6=江蕙 - 落雨声
TTITLE7=温岚 - 动心
TTITLE8=周杰伦 - 娘子
TTITLE9=吴宗宪 - 你比从前快乐
TTITLE10=温岚 - 胡同里有只猫
TTITLE11=周杰伦 - 反方向的钟
EXTD=
EXTT0=
EXTT1=
EXTT2=
EXTT3=
EXTT4=
EXTT5=
EXTT6=
EXTT7=
EXTT8=
EXTT9=
EXTT10=
EXTT11=
PLAYORDER=
